<svg height="480pt" viewBox="0 0 480 480" width="480pt" xmlns="http://www.w3.org/2000/svg"><g fill="#96c8ef"><path d="m232 408v16c0 26.507812 21.492188 48 48 48h192v-24h-184c-17.671875 0-32-14.328125-32-32s14.328125-32 32-32h184v-24h-192c-26.507812 0-48 21.492188-48 48zm0 0"/><path d="m248 312v-16c0-26.507812-21.492188-48-48-48h-192v24h184c17.671875 0 32 14.328125 32 32s-14.328125 32-32 32h-184v24h192c26.507812 0 48-21.492188 48-48zm0 0"/><path d="m360 64c22.089844 0 40 17.910156 40 40s-17.910156 40-40 40h-10.238281c-1.546875 8.222656-3.933594 16.265625-7.121094 24h17.359375c35.347656 0 64-28.652344 64-64s-28.652344-64-64-64h-8v24zm0 0"/><path d="m136 104c0 8.835938 7.164062 16 16 16s16-7.164062 16-16v-64h32v20c0 11.046875 8.953125 20 20 20s20-8.953125 20-20v-20h112v-32h-256v32h40zm0 0"/><path d="m56 360h200v112h-200c-26.507812 0-48-21.492188-48-48v-16c0-26.507812 21.492188-48 48-48zm0 0"/><path d="m416 360h-200v-112h200c26.507812 0 48 21.492188 48 48v16c0 26.507812-21.492188 48-48 48zm0 0"/></g><path d="m480 312v-16c-.035156-30.914062-25.085938-55.964844-56-56h-135.929688c26.472657-14.105469 47.496094-36.625 59.753907-64h12.175781c39.765625 0 72-32.234375 72-72s-32.234375-72-72-72v-24c0-4.417969-3.582031-8-8-8h-256c-4.417969 0-8 3.582031-8 8v112c.046875 50.25 27.78125 96.382812 72.136719 120h-152.136719c-4.417969 0-8 3.582031-8 8v24c0 4.417969 3.582031 8 8 8h8v48h-8c-4.417969 0-8 3.582031-8 8v24c0 4.417969 3.582031 8 8 8h8.886719c-10.800781 10.503906-16.89062525 24.933594-16.886719 40v16c.0351562 30.914062 25.085938 55.964844 56 56h416c4.417969 0 8-3.582031 8-8v-24c0-4.417969-3.582031-8-8-8h-8v-48h8c4.417969 0 8-3.582031 8-8v-24c0-4.417969-3.582031-8-8-8h-8.886719c10.800781-10.503906 16.890625-24.933594 16.886719-40zm-120.753906-178.183594c.089844-.800781.152344-1.664062.21875-2.496094.320312-3.792968.535156-7.578124.535156-11.320312v-48c17.671875 0 32 14.328125 32 32s-14.328125 32-32 32h-.945312c.089843-.726562.144531-1.457031.191406-2.183594zm56.753906-29.816406c.023438 14.859375-5.867188 29.117188-16.375 39.625s-24.765625 16.398438-39.625 16.375h-5.984375c.0625-.199219.097656-.425781.152344-.625.726562-2.398438 1.273437-4.902344 1.871093-7.375h3.960938c26.507812 0 48-21.492188 48-48s-21.492188-48-48-48v-8c30.914062.035156 55.964844 25.085938 56 56zm-72-88v16h-104c-4.417969 0-8 3.582031-8 8v20c0 6.628906-5.371094 12-12 12s-12-5.371094-12-12v-20c0-4.417969-3.582031-8-8-8h-32c-4.417969 0-8 3.582031-8 8v64c0 4.417969-3.582031 8-8 8s-8-3.582031-8-8v-64c0-4.417969-3.582031-8-8-8h-32v-16zm-240 104v-72h24v56c0 13.253906 10.746094 24 24 24s24-10.746094 24-24v-56h16v12c0 15.464844 12.535156 28 28 28s28-12.535156 28-28v-12h96v72c-.011719 7.5625-.71875 15.105469-2.113281 22.535156-1.441407 7.699219-3.671875 15.226563-6.664063 22.464844-21.554687 53.21875-77.785156 83.710938-134.148437 72.742188-56.359375-10.96875-97.050781-60.324219-97.074219-117.742188zm-72 160h160c13.253906 0 24 10.746094 24 24s-10.746094 24-24 24h-160zm-16 72v-8h176c22.089844 0 40-17.910156 40-40s-17.910156-40-40-40h-176v-8h184c22.082031.027344 39.972656 17.917969 40 40v16c-.027344 22.082031-17.917969 39.972656-40 40zm40 112c-22.082031-.027344-39.972656-17.917969-40-40v-16c.027344-22.082031 17.917969-39.972656 40-40h184.886719c-10.800781 10.503906-16.890625 24.933594-16.886719 40v16c-.003906 15.066406 6.085938 29.496094 16.886719 40zm392-24h-160c-13.253906 0-24-10.746094-24-24s10.746094-24 24-24h160zm16-72v8h-176c-22.089844 0-40 17.910156-40 40s17.910156 40 40 40h176v8h-184c-22.082031-.027344-39.972656-17.917969-40-40v-16c.027344-22.082031 17.917969-39.972656 40-40zm-224.886719-16c10.800781-10.503906 16.890625-24.933594 16.886719-40v-16c.003906-15.066406-6.085938-29.496094-16.886719-40h184.886719c22.082031.027344 39.972656 17.917969 40 40v16c-.027344 22.082031-17.917969 39.972656-40 40zm0 0" fill="#1e81ce"/><path d="m320.519531 158.6875c1.652344-4.097656-.328125-8.757812-4.425781-10.410156-4.101562-1.652344-8.761719.328125-10.414062 4.425781-13.320313 33.429687-45.695313 55.34375-81.679688 55.296875-4.417969 0-8 3.582031-8 8s3.582031 8 8 8c42.519531.066406 80.769531-25.820312 96.519531-65.3125zm0 0" fill="#1e81ce"/></svg>