<svg id="Capa_1" enable-background="new 0 0 512 512" height="512" viewBox="0 0 512 512" width="512" xmlns="http://www.w3.org/2000/svg"><path d="m436.819 504.5h-361.638v-497h301.028l60.61 60.61z" fill="#e4f6ff"/><path d="m376.209 7.5h-16.163v60.61c0 8.926 7.236 16.163 16.163 16.163h37.376c3.347 0 6.061 2.714 6.061 6.061v414.166h17.173v-436.39z" fill="#d3effb"/><path d="m436.819 68.11h-60.61v-60.61z" fill="#a2f4c1"/><path d="m177.207 201.451h24.244l8.669-30.822c1.874-6.662 5.474-12.686 10.324-17.623 10.744-10.936 17.373-25.928 17.373-42.47 0-33.474-27.136-60.61-60.61-60.61s-60.61 27.136-60.61 60.61c0 16.542 6.628 31.534 17.373 42.47 4.85 4.937 8.451 10.96 10.325 17.623l8.669 30.822z" fill="#f4dd45"/><path d="m218.132 65.837c2.272 6.571 3.522 13.618 3.522 20.961 0 35.426-28.719 64.145-64.145 64.145-11.568 0-22.411-3.078-31.782-8.436 2.364 3.798 5.124 7.324 8.243 10.499 4.85 4.937 8.451 10.96 10.325 17.623l8.669 30.822h24.244 24.244l8.669-30.822c1.874-6.662 5.474-12.686 10.325-17.623 10.744-10.936 17.373-25.928 17.373-42.47-.002-17.697-7.59-33.619-19.687-44.699z" fill="#ecc32e"/><path d="m201.451 201.451v20.203c0 5.579-4.523 10.102-10.102 10.102h-28.285c-5.579 0-10.102-4.523-10.102-10.102v-20.203z" fill="#665e66"/><path d="m186.299 201.451v20.203c0 5.579-4.523 10.102-10.102 10.102h15.152c5.579 0 10.102-4.523 10.102-10.102v-20.203z" fill="#544f57"/><path d="m274.183 201.451h80.813v30.305h-80.813z" fill="#aad540"/><path d="m240.079 401.463c-4.908-4.55-7.982-11.049-7.982-18.27 0-13.759 11.154-24.913 24.913-24.913s24.913 11.154 24.913 24.913c0 7.22-3.075 13.72-7.982 18.27h100.161v-39.861h-32.592c-2.364-9.279-6.217-17.962-11.288-25.783l22.504-22.504-28.186-28.186-23.054 23.054c-7.049-4.188-14.736-7.414-22.883-9.49v-32.592h-39.863v31.819c-9.383 2.001-18.206 5.51-26.205 10.263l-23.054-23.054-28.186 28.186 22.504 22.504c-5.071 7.821-8.924 16.504-11.288 25.783h-32.592v39.861z" fill="#e2dfe2"/><path d="m341.51 361.602c-2.364-9.279-6.217-17.962-11.288-25.783l22.504-22.504-28.186-28.186-23.054 23.054c-.011-.006-.022-.012-.032-.018 0 .121.005.242.005.363 0 25.189-7.503 48.623-20.386 68.202.553 2.062.852 4.227.852 6.463 0 7.22-3.075 13.72-7.982 18.27h100.161v-39.861z" fill="#d3ced5"/><path d="m436.819 311.042c-4.142 0-7.5 3.358-7.5 7.5v178.458h-346.638v-298.437c0-4.142-3.358-7.5-7.5-7.5s-7.5 3.358-7.5 7.5v305.937c0 4.142 3.358 7.5 7.5 7.5h361.639c4.142 0 7.5-3.358 7.5-7.5v-185.958c-.001-4.143-3.359-7.5-7.501-7.5z"/><path d="m442.123 62.807-60.61-60.61c-1.407-1.407-3.314-2.197-5.304-2.197h-301.028c-4.142 0-7.5 3.358-7.5 7.5v155.969c0 4.142 3.358 7.5 7.5 7.5s7.5-3.358 7.5-7.5v-148.469h286.029v53.11c0 4.142 3.358 7.5 7.5 7.5h53.11v207.89c0 4.142 3.358 7.5 7.5 7.5s7.5-3.358 7.5-7.5v-215.39c-.001-1.989-.791-3.897-2.197-5.303zm-58.414-37.201 35.003 35.003h-35.003z"/><path d="m163.065 239.256h28.285c9.706 0 17.602-7.896 17.602-17.602v-19.169l8.389-29.826c1.493-5.308 4.417-10.287 8.455-14.396 12.589-12.814 19.522-29.764 19.522-47.726 0-37.556-30.554-68.11-68.109-68.11-37.556 0-68.11 30.554-68.11 68.11 0 17.962 6.933 34.912 19.522 47.726 4.038 4.11 6.961 9.088 8.455 14.397l8.389 29.826v19.169c-.002 9.705 7.894 17.601 17.6 17.601zm30.886-17.602c0 1.435-1.167 2.602-2.602 2.602h-28.285c-1.435 0-2.602-1.167-2.602-2.602v-12.703h33.488v12.703zm-69.853-111.117c0-29.285 23.825-53.11 53.11-53.11s53.109 23.825 53.109 53.11c0 14.006-5.406 27.222-15.223 37.213-5.803 5.907-10.02 13.116-12.194 20.848l-7.131 25.353h-37.125l-7.13-25.353c-2.175-7.732-6.391-14.942-12.194-20.849-9.816-9.991-15.222-23.207-15.222-37.212z"/><path d="m266.683 231.756c0 4.142 3.358 7.5 7.5 7.5h80.813c4.142 0 7.5-3.358 7.5-7.5v-30.305c0-4.142-3.358-7.5-7.5-7.5h-80.813c-4.142 0-7.5 3.358-7.5 7.5zm15-22.805h65.813v15.305h-65.813z"/><path d="m274.183 87.732h42.427c4.142 0 7.5-3.358 7.5-7.5s-3.358-7.5-7.5-7.5h-42.427c-4.142 0-7.5 3.358-7.5 7.5s3.358 7.5 7.5 7.5z"/><path d="m274.183 127.128h111.118c4.142 0 7.5-3.358 7.5-7.5s-3.358-7.5-7.5-7.5h-111.118c-4.142 0-7.5 3.358-7.5 7.5s3.358 7.5 7.5 7.5z"/><path d="m274.183 166.524h111.118c4.142 0 7.5-3.358 7.5-7.5s-3.358-7.5-7.5-7.5h-111.118c-4.142 0-7.5 3.358-7.5 7.5s3.358 7.5 7.5 7.5z"/><path d="m220.645 429.319h-80.727c-4.142 0-7.5 3.358-7.5 7.5s3.358 7.5 7.5 7.5h80.727c4.142 0 7.5-3.358 7.5-7.5s-3.358-7.5-7.5-7.5z"/><path d="m220.645 462.654h-80.727c-4.142 0-7.5 3.358-7.5 7.5s3.358 7.5 7.5 7.5h80.727c4.142 0 7.5-3.358 7.5-7.5s-3.358-7.5-7.5-7.5z"/><path d="m374.102 429.319h-80.726c-4.142 0-7.5 3.358-7.5 7.5s3.358 7.5 7.5 7.5h80.726c4.142 0 7.5-3.358 7.5-7.5s-3.358-7.5-7.5-7.5z"/><path d="m374.102 462.654h-80.726c-4.142 0-7.5 3.358-7.5 7.5s3.358 7.5 7.5 7.5h80.726c4.142 0 7.5-3.358 7.5-7.5s-3.358-7.5-7.5-7.5z"/><path d="m100.006 401.463c0 4.142 3.358 7.5 7.5 7.5h132.573c3.085 0 5.855-1.889 6.982-4.761s.379-6.141-1.883-8.239c-3.599-3.337-5.581-7.872-5.581-12.77 0-9.602 7.812-17.414 17.413-17.414s17.413 7.812 17.413 17.414c0 4.897-1.982 9.433-5.582 12.77-2.262 2.098-3.01 5.367-1.883 8.239 1.126 2.872 3.897 4.761 6.982 4.761h132.573c4.142 0 7.5-3.358 7.5-7.5s-3.358-7.5-7.5-7.5h-24.912v-32.361c0-4.142-3.358-7.5-7.5-7.5h-26.951c-1.916-5.942-4.416-11.672-7.476-17.129l18.354-18.354c1.407-1.406 2.197-3.314 2.197-5.303s-.79-3.897-2.197-5.303l-28.187-28.187c-1.406-1.407-3.314-2.197-5.303-2.197s-3.897.79-5.303 2.197l-19.065 19.065c-4.531-2.325-9.234-4.276-14.069-5.836v-26.954c0-4.142-3.358-7.5-7.5-7.5h-39.861c-4.142 0-7.5 3.358-7.5 7.5v25.952c-6.011 1.695-11.828 3.982-17.392 6.837l-19.064-19.065c-1.406-1.407-3.314-2.197-5.303-2.197s-3.897.79-5.303 2.197l-28.186 28.187c-1.407 1.407-2.197 3.314-2.197 5.303s.79 3.897 2.197 5.303l18.354 18.354c-3.059 5.458-5.56 11.187-7.475 17.129h-26.953c-4.142 0-7.5 3.358-7.5 7.5v32.361h-24.912c-4.142.001-7.5 3.359-7.5 7.501zm47.412-32.361h25.092c3.429 0 6.421-2.326 7.268-5.648 2.129-8.359 5.599-16.284 10.313-23.554 1.925-2.97 1.513-6.881-.99-9.384l-17.201-17.2 17.58-17.58 17.751 17.751c2.424 2.425 6.187 2.896 9.134 1.145 7.44-4.421 15.494-7.576 23.938-9.376 3.461-.738 5.936-3.795 5.936-7.335v-24.319h24.861v25.092c0 3.429 2.326 6.421 5.648 7.268 7.333 1.868 14.366 4.785 20.903 8.669 2.948 1.753 6.71 1.281 9.135-1.144l17.751-17.751 17.58 17.58-17.201 17.2c-2.503 2.502-2.915 6.414-.99 9.384 4.713 7.269 8.184 15.193 10.314 23.554.847 3.322 3.839 5.648 7.268 5.648h25.092v24.861h-79.031c1.212-3.432 1.853-7.073 1.853-10.77 0-17.873-14.541-32.414-32.413-32.414s-32.413 14.541-32.413 32.414c0 3.696.64 7.337 1.853 10.77h-79.032v-24.861z"/></svg>