<?xml version="1.0" encoding="UTF-8" standalone="no"?>
<svg
   xmlns:dc="http://purl.org/dc/elements/1.1/"
   xmlns:cc="http://creativecommons.org/ns#"
   xmlns:rdf="http://www.w3.org/1999/02/22-rdf-syntax-ns#"
   xmlns:svg="http://www.w3.org/2000/svg"
   xmlns="http://www.w3.org/2000/svg"
   xmlns:sodipodi="http://sodipodi.sourceforge.net/DTD/sodipodi-0.dtd"
   xmlns:inkscape="http://www.inkscape.org/namespaces/inkscape"
   inkscape:version="1.0 (4035a4fb49, 2020-05-01)"
   sodipodi:docname="reading.svg"
   version="1.1"
   viewBox="0 0 1600 1200"
   data-name="Layer 2"
   id="Layer_2">
  <metadata
     id="metadata277">
    <rdf:RDF>
      <cc:Work
         rdf:about="">
        <dc:format>image/svg+xml</dc:format>
        <dc:type
           rdf:resource="http://purl.org/dc/dcmitype/StillImage" />
        <dc:title>wfh_9</dc:title>
      </cc:Work>
    </rdf:RDF>
  </metadata>
  <sodipodi:namedview
     inkscape:current-layer="Layer_6"
     inkscape:window-maximized="1"
     inkscape:window-y="-9"
     inkscape:window-x="-9"
     inkscape:cy="730.61224"
     inkscape:cx="800"
     inkscape:zoom="0.6125"
     showgrid="false"
     id="namedview275"
     inkscape:window-height="1001"
     inkscape:window-width="1920"
     inkscape:pageshadow="2"
     inkscape:pageopacity="0"
     guidetolerance="10"
     gridtolerance="10"
     objecttolerance="10"
     borderopacity="1"
     bordercolor="#666666"
     pagecolor="#ffffff" />
  <defs
     id="defs4">
    <style
       id="style2">.cls-1{fill:#f5ebdd;}.cls-2{fill:#a15842;}.cls-12,.cls-13,.cls-14,.cls-15,.cls-17,.cls-18,.cls-20,.cls-3,.cls-5,.cls-9{fill:none;}.cls-12,.cls-3,.cls-9{stroke:#a15842;}.cls-12,.cls-13,.cls-15,.cls-20,.cls-3,.cls-5,.cls-9{stroke-miterlimit:10;}.cls-13,.cls-15,.cls-18,.cls-20,.cls-3,.cls-5,.cls-9{stroke-width:4px;}.cls-4{fill:#ffbe21;}.cls-5{stroke:#f5ebdd;}.cls-12,.cls-13,.cls-15,.cls-17,.cls-18,.cls-20,.cls-5,.cls-9{stroke-linecap:round;}.cls-6{fill:#ff7235;}.cls-7{fill:#30242a;}.cls-8{fill:#ffb7d5;}.cls-10{fill:#eaa58b;}.cls-11{fill:#3ec1f3;}.cls-12,.cls-17{stroke-width:8px;}.cls-13{stroke:#4756df;}.cls-15,.cls-17{stroke:#30242a;}.cls-16{fill:#4856df;}.cls-17,.cls-18{stroke-linejoin:round;}.cls-18{stroke:#000;}.cls-19{fill:#fff;}.cls-20{stroke:#4856df;}.cls-21{fill:#4756df;}</style>
    <style
       id="style1102">.cls-1{fill:#4756df;}.cls-2{fill:#ffb7d5;}.cls-3{fill:#ca7358;}.cls-10,.cls-11,.cls-15,.cls-16,.cls-17,.cls-19,.cls-20,.cls-4,.cls-9{fill:none;}.cls-4{stroke:#ffb7d5;}.cls-10,.cls-16,.cls-17,.cls-19,.cls-20,.cls-4,.cls-9{stroke-linecap:round;}.cls-10,.cls-16,.cls-19,.cls-4{stroke-linejoin:round;}.cls-10,.cls-11,.cls-17,.cls-19,.cls-20,.cls-4,.cls-9{stroke-width:4px;}.cls-5{fill:#f5ebdd;}.cls-6{fill:#30242a;}.cls-7{fill:#ffbe21;}.cls-8{fill:#a15842;}.cls-11,.cls-9{stroke:#a15842;}.cls-11,.cls-17,.cls-20,.cls-9{stroke-miterlimit:10;}.cls-10,.cls-16,.cls-20{stroke:#30242a;}.cls-12{fill:#4856df;}.cls-13{fill:#3ec1f3;}.cls-14{clip-path:url(#clip-path);}.cls-16{stroke-width:8px;}.cls-17{stroke:#000;}.cls-18{fill:#f4e6d8;}.cls-19{stroke:#f5ebdd;}</style>
    <clipPath
       id="clip-path">
      <path
         class="cls-1"
         d="M624.86,452.13c-1.9-4.59,4.44-11.79,15-17.87-14.3-3.56-24.46-10.19-23.44-15.76s12.86-8.19,27.5-6.47c-7.7-9.4-11.09-18.38-7.69-22,4.33-4.63,18.07,1.21,30.68,13,11,10.3,17.5,21.76,16.12,27.59-.77,5.94-10.9,14.36-24.82,20.12C642.2,457.38,627.29,458,624.86,452.13Z"
         id="path1104" />
    </clipPath>
  </defs>
  <title
     id="title6">wfh_9</title>
  <path
     clip-path="url(#clip-path)"
     id="path72"
     d="M447.57,836.54,474.3,849.1l-24.56-14.84C448.32,835.74,447.57,836.54,447.57,836.54Z"
     class="cls-14" />
  <polygon
     clip-path="url(#clip-path)"
     id="polygon74"
     points="551.52 885.37 574.8 896.3 579.65 891.86 551.52 885.37"
     class="cls-14" />
  <g
     transform="translate(-36.413839,-22.528582)"
     id="Layer_6"
     data-name="Layer 6">
    <path
       sodipodi:nodetypes="ssssssss"
       id="path1464"
       d="M 251.92404,1072.3245 C 236.64962,880.02438 107.9409,641.83007 126.20976,507.42654 149.40388,336.78795 452.12509,369.9102 571.92404,246.20205 678.96386,135.66938 1097.2608,310.6269 1009.475,540.0796 c -76.58247,200.16967 195.3833,258.49484 125.7143,388.57143 -46.5531,86.91767 -112.4544,52.57668 -187.75507,228.57137 -70.69181,165.2227 -325.04166,-57.1794 -538.77549,19.5919 -59.09406,21.2261 -148.98977,-6.9836 -156.7347,-104.4898 z"
       style="fill:#a158d2;fill-opacity:1;stroke:#000000;stroke-width:1px;stroke-linecap:butt;stroke-linejoin:miter;stroke-opacity:1" />
    <rect
       class="cls-8"
       x="493.76999"
       y="897"
       width="16.469999"
       height="142.46001"
       transform="rotate(-90,502.01,968.23)"
       id="rect1199" />
    <path
       class="cls-7"
       d="M 596.71,1045.48 561.42,833.73 H 583 a 8.72,8.72 0 1 0 0,-17.44 H 421.19 a 8.72,8.72 0 1 0 0,17.44 h 21.41 l -35.29,211.75 a 7.32,7.32 0 0 0 7.22,8.52 v 0 a 7.31,7.31 0 0 0 7.15,-5.76 l 46.76,-214.51 h 67.14 l 46.75,214.51 a 7.33,7.33 0 0 0 7.16,5.76 v 0 a 7.32,7.32 0 0 0 7.22,-8.52 z"
       id="path1201" />
    <path
       class="cls-8"
       d="m 583,833.73 a 8.72,8.72 0 1 0 0,-17.44 H 421.19 a 8.72,8.72 0 1 0 0,17.44 H 442.6 V 834 h 25.82 l 0.06,-0.27 h 67.14 l 0.06,0.27 h 25.82 v -0.27 z"
       id="path1203" />
    <path
       class="cls-12"
       d="m 592.59,959.72 h 103 c 1.28,-21.87 5.85,-50.88 9.64,-90.07 3.37,-34.75 6.27,-63.92 6.08,-88 -0.32,-40.14 -103,8.44 -103,8.44 0,8.77 1.77,17.19 1.82,25.35 0.12,21.2 -10.62,39.24 -18.29,64.81 -11.63,38.77 -1.94,79.47 -1.94,79.47 z"
       id="path1205" />
    <path
       class="cls-13"
       d="m 701.08,1043.06 h -90.17 a 5.51,5.51 0 0 0 1.66,10.76 l 132.69,0.18 c 1.17,-12.9 -6.16,-22.61 -26.84,-37 -11.8,10.23 -17.34,26.06 -17.34,26.06 z"
       id="path1207" />
    <path
       class="cls-8"
       d="m 713.77,1013.87 a 39.07,39.07 0 0 1 -10.89,-10.54 c -7,-10.27 -8.48,-24.1 -7.33,-43.61 h -89.26 a 362.87,362.87 0 0 0 3.15,43.61 c 2.28,16.37 5.36,27.63 7.83,39.47 h -4.69 a 5.45,5.45 0 0 0 -1.67,0.26 h 90.17 c 0,0 5.54,-15.83 17.34,-26 q -2.22,-1.57 -4.65,-3.19 z"
       id="path1209" />
    <path
       class="cls-10"
       d="m 696.63,942.2 a 117.57,117.57 0 0 1 -11.15,-34.93 c -6.53,-45.37 -2.66,-68.63 -21.07,-89 h -53.87"
       id="path1211" />
    <path
       class="cls-12"
       d="m 730.22,963.59 0.1,0.24 79.52,-37.24 C 803.65,908.07 797.18,883.43 786.55,851.18 776.59,821 770,798.45 763.76,781 A 43.11,43.11 0 0 1 707.45,716.18 C 665,697 514.23,684.49 514.23,684.49 l -85.29,-12.6 c -4.5,7.44 -8.33,19.23 -10.41,33 h 29.8 v 31.87 A 24.35,24.35 0 0 1 424,761.05 h -1.7 c -0.4,0 -0.8,0 -1.19,0 8.14,30 29.08,55.27 71.82,55.27 h 172.5 c 18.41,20.35 14.54,43.61 21.07,89 5.34,37.13 30.65,64.5 30.65,64.5 z"
       id="path1213" />
    <path
       class="cls-13"
       d="m 851.36,1006.24 -79.2,35.92 a 6.52,6.52 0 0 0 6.54,11.23 l 120.18,-56 c -4.71,-13 -16.82,-18 -45.51,-23 l -1.23,-0.23 a 81.73,81.73 0 0 0 -0.78,32.08 z"
       id="path1215" />
    <path
       class="cls-8"
       d="m 852.14,974.12 c -8.26,-1.58 -14.74,-4.33 -20.09,-8.49 -9.86,-7.68 -15.9,-20.18 -22.21,-39 l -79.52,37.24 c 6.74,15.49 16.2,31.78 25.21,46 7.87,12.38 15.38,23.17 20.43,30.4 l -2.87,1.39 a 6.2,6.2 0 0 0 -0.93,0.56 l 79.2,-35.92 a 81.73,81.73 0 0 1 0.78,-32.18 z"
       id="path1217" />
    <path
       class="cls-13"
       d="M 738.58,789.15 A 42.89,42.89 0 0 0 763.76,781 c -12.41,-34.88 -23.17,-49.41 -55.71,-64.55 l -0.6,-0.27 a 43.11,43.11 0 0 0 31.13,72.95 z"
       id="path1219" />
    <path
       class="cls-13"
       d="m 424,761.05 a 24.35,24.35 0 0 0 24.35,-24.34 v -31.87 h -29.8 c -2.63,17.29 -2.48,37.63 2.56,56.18 0.39,0 0.79,0 1.19,0 z"
       id="path1221" />
    <line
       class="cls-10"
       x1="663.96002"
       y1="818.71002"
       x2="693.03003"
       y2="818.71002"
       id="line1223" />
    <path
       class="cls-10"
       d="m 721.13,458.2 c 0,0 7.76,21.32 3.88,43.61"
       id="path1235" />
    <path
       class="cls-15"
       d="M 460.93,665.11 554,667 c 0,0 2.33,-3.4 5.83,-8.55 L 450.87,655.8 Z"
       id="path1237" />
    <path
       class="cls-8"
       d="M 579.62,373.28 C 563.08,391.89 545.5,396 545.5,396 534.13,383.6 513.5,383.6 510.35,401.17 506.92,420.64 531,426 531,426 c 0,0 6.07,25.12 -3.24,37.53 -8.22,11 -18.78,12.81 -40.42,15.23 28.2,47.65 57,43.89 66.59,43.89 23,0 29.48,-26.69 31.29,-40.45 a 136.86,136.86 0 0 0 -16,-4.51 l -3.1,-18.6 c 0,0 14.47,5.16 26.88,-2.07 12.41,-7.23 15.51,-20.68 11.37,-41.35 -2.45,-12.25 -2.36,-27.4 -4.46,-40.94 -8.19,1.39 -20.29,-1.45 -20.29,-1.45 z"
       id="path1239" />
    <path
       class="cls-8"
       d="M 751.66,477.1 C 747.27,459.53 712.9,450 712.9,450 c 0,0 2.06,-39.44 -6.79,-40.7 -6.78,-1 -13.57,15.51 -19.38,47.49 -6.5,35.74 -2.91,101.75 -2.91,101.75 0,0 -7.19,-6.53 -17.39,-15.62 a 12.58,12.58 0 0 1 -11,7 12.58,12.58 0 0 1 -9.63,20.37 12.58,12.58 0 0 1 -9.63,20.37 12.58,12.58 0 0 1 -11,20.32 c 21.23,13.82 50.09,29.94 69.32,29.94 100.78,-0.04 60.08,-152.19 57.17,-163.82 z"
       id="path1241" />
    <path
       class="cls-7"
       d="m 637.63,603.79 a 12.6,12.6 0 0 0 -1.49,-13.17 12.58,12.58 0 0 0 9.63,-20.37 12.58,12.58 0 0 0 9.63,-20.37 12.58,12.58 0 0 0 11,-7 C 648.82,527.22 622.31,504 608.2,493.57 c -6.83,-5.05 -15.53,-8.79 -23,-11.37 -1.76,13.8 -8.2,40.45 -31.2,40.45 -9.55,0 -38.39,3.76 -66.59,-43.89 l -9.06,1 c -31.2,3.47 -45.4,20.26 -53.76,40.32 -5.17,12.41 -9.31,35.15 -9.31,35.15 a 425.08,425.08 0 0 0 -4.94,63 l 40.57,37.55 108.92,2.69 c 8.72,-12.86 24.72,-36.61 30,-45.72 6.78,-11.63 7.75,-21.32 7.75,-21.32 0,0 11.64,9.1 27.59,19.49 a 12.58,12.58 0 0 0 12.46,-7.13 z"
       id="path1243" />
    <path
       class="cls-6"
       d="m 591,350.53 c -12.4,-15.5 -46.52,-25.84 -73.4,-6.2 -26.88,19.64 -24.81,51.69 -23.78,64.1 0,0 -28.94,-9.31 -49.62,12.4 a 52.33,52.33 0 0 0 -13.44,47.56 c 0,0 -38.08,-1.07 -45.49,34.12 -4.21,20 3.65,33.31 12.37,41.55 a 55.69,55.69 0 0 0 17.61,11.17 c 0,0 4.14,-22.74 9.31,-35.15 8.36,-20.06 22.56,-36.85 53.76,-40.32 l 9.06,-1 c 21.64,-2.42 32.2,-4.26 40.42,-15.23 9.3,-12.41 3.2,-37.53 3.2,-37.53 0,0 -24.11,-5.36 -20.68,-24.81 3.11,-17.57 23.78,-17.57 35.15,-5.17 0,0 17.58,-4.13 34.12,-22.74 0,0 12.1,2.84 20.35,1.45 -1.41,-9.32 -3.89,-17.87 -8.94,-24.2 z"
       id="path1245" />
    <path
       class="cls-16"
       d="m 753.81,490.91 c -2.93,-1.35 -4.68,-4.75 -4.18,-11.25 0,0 -6.06,7.6 -12.51,4.22 -6.45,-3.38 -3.87,-10.66 -3.87,-10.66 0,0 -5.82,3.88 -10.66,-1 -4.39,-4.39 -1,-11.63 -1,-11.63 0,0 -6.44,2.63 -8.72,-1.94 -2.87,-5.72 0.62,-11.71 4.4,-16.3"
       id="path1247" />
    <path
       class="cls-17"
       d="m 428.92,469.23 a 46.36,46.36 0 0 0 5.84,14.65"
       id="path1249" />
    <line
       class="cls-10"
       x1="681.88"
       y1="559.78998"
       x2="684.31"
       y2="590"
       id="line1251" />
    <path
       class="cls-10"
       d="m 594.18,558 c 6.33,11.4 6.25,25.08 5.43,33.19"
       id="path1253" />
    <line
       class="cls-10"
       x1="537"
       y1="590"
       x2="505.98999"
       y2="590.96997"
       id="line1255" />
    <path
       class="cls-10"
       d="m 565.59,461 a 116.2,116.2 0 0 1 -12.66,-5.87"
       id="path1257" />
    <line
       class="cls-10"
       x1="573.34003"
       y1="489.70001"
       x2="571.65002"
       y2="478.98999"
       id="line1259" />
    <line
       class="cls-17"
       x1="491.73001"
       y1="408.82001"
       x2="493.88"
       y2="426.70001"
       id="line1261" />
    <path
       class="cls-10"
       d="m 594.18,430.1 c -2.19,1.42 -9.45,1.89 -12.93,-4.44"
       id="path1263" />
    <line
       class="cls-10"
       x1="536.03003"
       y1="409.73999"
       x2="526.34003"
       y2="404.89999"
       id="line1265" />
    <path
       class="cls-10"
       d="m 580.77,405.45 c -1.55,2.11 -8.86,6.2 -14.36,1.53"
       id="path1267" />
    <path
       class="cls-10"
       d="m 604.32,402.4 a 9,9 0 0 1 -6.78,-1.26"
       id="path1269" />
    <path
       class="cls-10"
       d="m 591.21,406 c 1.11,2.51 2.18,5.28 1.95,6.34 a 5.89,5.89 0 0 1 -2.18,3.22"
       id="path1271" />
    <path
       class="cls-18"
       d="m 530.72,421.45 -13.23,12.48 a 5.76,5.76 0 0 0 2,9.61 l 15.64,5.55 a 5.76,5.76 0 0 0 7.63,-6.19 l -2.41,-18 a 5.76,5.76 0 0 0 -9.63,-3.45 z"
       id="path1273" />
    <path
       class="cls-8"
       d="m 720.65,424.77 c 0,0 6.78,-3.88 12.6,-1.94 9,3 7.68,11.38 7.68,11.38 0,0 12.62,-4.55 15.07,8.79 0,0 11.38,2.55 8.82,13.93 0,0 9.21,0.49 7.38,12.56 -1.83,12.07 -9.88,22.1 -14.72,22.1 -5,0 -8.53,-3.07 -7.85,-12 0,0 -6.06,7.6 -12.51,4.22 -6.45,-3.38 -3.87,-10.66 -3.87,-10.66 0,0 -5.82,3.88 -10.66,-1 -4.39,-4.39 -1,-11.63 -1,-11.63 0,0 -6.44,2.63 -8.72,-1.94 -4.85,-9.69 8.49,-20.11 10.66,-23.25 z"
       id="path1275" />
    <path
       class="cls-10"
       d="m 717.77,464.05 c 6.66,-6.11 18,-17.64 23.38,-29.74"
       id="path1277" />
    <path
       class="cls-10"
       d="m 730,478 a 106.94,106.94 0 0 0 26.55,-34"
       id="path1279" />
    <path
       class="cls-10"
       d="m 747.13,485.18 c 3,-3.66 13.49,-16.81 18.69,-27.22"
       id="path1281" />
    <path
       class="cls-6"
       d="M 745.25,707.75 H 577.41 L 615.56,587.22 A 17.53,17.53 0 0 1 632.28,575 h 141.83 a 17.53,17.53 0 0 1 16.72,22.82 l -31.55,99.67 a 14.73,14.73 0 0 1 -14.03,10.26 z"
       id="path1283" />
    <path
       class="cls-6"
       d="m 480,694.18 a 10.42,10.42 0 0 0 9.93,13.57 h 255.32 a 14.72,14.72 0 0 0 14,-10.28 l 1,-3.29 z"
       id="path1285" />
    <path
       class="cls-7"
       d="m 719.54,631 c -3.9,-5.34 -21.63,8.76 -22.93,9.93 -0.68,-1.17 -9.9,-15.27 -16.67,-9.93 -5.87,4.63 7,25.3 10.47,30.57 a 1.53,1.53 0 0 0 2.28,0 C 699,656.25 722.93,635.58 719.54,631 Z"
       id="path1287" />
    <ellipse
       class="cls-7"
       cx="700.64001"
       cy="626.35999"
       rx="8.5799999"
       ry="2.8099999"
       transform="rotate(-72.7,700.66882,626.36371)"
       id="ellipse1289" />
    <path
       class="cls-7"
       d="m 383.83,598.47 a 12.61,12.61 0 0 0 13,-2.42 12.57,12.57 0 0 0 21,8.18 12.58,12.58 0 0 0 21,8.17 12.56,12.56 0 0 0 15.92,11 l 15.12,-40.61 A 129.34,129.34 0 0 0 478,534 l -1.53,-54 c 0,0 -34.89,2.9 -55.24,28.1 -10.44,12.93 -30.93,47.09 -44.06,84.23 a 12.57,12.57 0 0 0 6.66,6.14 z"
       id="path1291" />
    <path
       class="cls-8"
       d="m 446.82,623 a 12.57,12.57 0 0 1 -8,-10.6 12.58,12.58 0 0 1 -21,-8.17 12.57,12.57 0 0 1 -21,-8.18 12.58,12.58 0 0 1 -19.74,-3.71 c -11.38,32.19 -17.24,66.63 -6.22,91.42 23.72,53.39 94.91,34.6 111.71,29.66 16.8,-4.94 49.44,-21.75 71.19,-18.78 21.75,2.97 46.46,13.84 50.42,0 0,0 13.31,-0.34 9.12,-13 0,0 6.69,-0.83 7.68,-5.77 2,-9.89 -21.75,-18.78 -21.75,-18.78 0,0 18.79,3 22.74,-1 5,-5 0.14,-13.07 -30.55,-20.51 -33.71,-8.16 -78.2,-3.22 -144.44,8.64 l 7.75,-20.83 A 12.47,12.47 0 0 1 446.82,623 Z"
       id="path1293" />
    <line
       class="cls-10"
       x1="470.13"
       y1="577.40002"
       x2="448"
       y2="642"
       id="line1295" />
    <path
       class="cls-10"
       d="m 605.2,657.8 c -10.74,-4.08 -28.62,-10.34 -42.5,-12.6"
       id="path1297" />
    <path
       class="cls-10"
       d="m 613.58,681.12 c -13.8,-6.21 -40.16,-17.48 -54.34,-19.6"
       id="path1299" />
    <path
       class="cls-10"
       d="m 447.14,642.14 c -7.44,1.2 -19.12,3.19 -30.79,5.52"
       id="path1301" />
    <path
       class="cls-10"
       d="m 603.77,696 c -10.35,-5.27 -32.16,-15.75 -47.49,-18.67"
       id="path1303" />
  </g>
</svg>
