<svg width="100" height="100" viewBox="0 0 100 100" fill="none" xmlns="http://www.w3.org/2000/svg">
<path d="M50.4534 97.989C77.5124 97.989 99.448 76.0534 99.448 48.9946C99.448 21.9356 77.5124 0 50.4534 0C23.3945 0 1.45889 21.9356 1.45889 48.9946C1.45889 76.0534 23.3945 97.989 50.4534 97.989Z" fill="white"/>
<path d="M62.9261 52.7773L64.3936 43.2151H55.2183V37.0098C55.2183 34.3937 56.5 31.8437 60.6095 31.8437H64.7807V23.7025C64.7807 23.7025 60.9953 23.0564 57.3761 23.0564C49.82 23.0564 44.881 27.6363 44.881 35.9273V43.2151H36.4817V52.7773H44.881V75.8937H55.2183V52.7773H62.9261Z" fill="#08043E"/>
</svg>
