<svg width="100" height="100" viewBox="0 0 100 100" fill="none" xmlns="http://www.w3.org/2000/svg">
<path d="M48.9946 97.989C76.0534 97.989 97.989 76.0534 97.989 48.9946C97.989 21.9356 76.0534 0 48.9946 0C21.9356 0 0 21.9356 0 48.9946C0 76.0534 21.9356 97.989 48.9946 97.989Z" fill="#FFF8F8"/>
<path d="M49.4259 33.7769C41.1237 33.7769 34.4271 40.4735 34.4271 48.7757C34.4271 57.0781 41.1237 63.7747 49.4259 63.7747C57.7281 63.7747 64.4249 57.0781 64.4249 48.7757C64.4249 40.4735 57.7281 33.7769 49.4259 33.7769ZM49.4259 58.5269C44.0607 58.5269 39.6746 54.154 39.6746 48.7757C39.6746 43.3977 44.0478 39.0245 49.4259 39.0245C54.8041 39.0245 59.1771 43.3977 59.1771 48.7757C59.1771 54.154 54.791 58.5269 49.4259 58.5269ZM68.5366 33.1635C68.5366 35.1084 66.9702 36.6618 65.0383 36.6618C63.0934 36.6618 61.54 35.0955 61.54 33.1635C61.54 31.2313 63.1063 29.665 65.0383 29.665C66.9702 29.665 68.5366 31.2313 68.5366 33.1635ZM78.4707 36.714C78.2488 32.0277 77.1783 27.8767 73.7451 24.4564C70.3251 21.0363 66.1739 19.9659 61.4876 19.7309C56.6578 19.4569 42.181 19.4569 37.3512 19.7309C32.6778 19.9529 28.5268 21.0233 25.0937 24.4435C21.6604 27.8635 20.603 32.0147 20.3681 36.7011C20.0939 41.5308 20.0939 56.0077 20.3681 60.8377C20.59 65.5237 21.6604 69.675 25.0937 73.0952C28.5268 76.5152 32.6649 77.5857 37.3512 77.8206C42.181 78.0947 56.6578 78.0947 61.4876 77.8206C66.1739 77.5986 70.3251 76.5284 73.7451 73.0952C77.1654 69.675 78.2359 65.5237 78.4707 60.8377C78.7449 56.0077 78.7449 41.544 78.4707 36.714ZM72.231 66.0198C71.2127 68.5784 69.2417 70.5496 66.67 71.5808C62.819 73.1081 53.6815 72.7557 49.4259 72.7557C45.1702 72.7557 36.0195 73.0952 32.1817 71.5808C29.6232 70.5628 27.6522 68.5916 26.6207 66.0198C25.0937 62.1691 25.4461 53.0313 25.4461 48.7757C25.4461 44.5203 25.1066 35.3696 26.6207 31.5316C27.639 28.973 29.6102 27.002 32.1817 25.9708C36.0327 24.4435 45.1702 24.7959 49.4259 24.7959C53.6815 24.7959 62.8322 24.4564 66.67 25.9708C69.2285 26.9889 71.1998 28.9601 72.231 31.5316C73.7583 35.3825 73.4059 44.5203 73.4059 48.7757C73.4059 53.0313 73.7583 62.182 72.231 66.0198Z" fill="url(#paint0_linear)"/>
<defs>
<linearGradient id="paint0_linear" x1="49.4195" y1="19.5254" x2="49.4195" y2="78.0262" gradientUnits="userSpaceOnUse">
<stop stop-color="#6F1717"/>
<stop offset="0.609375" stop-color="#191E52" stop-opacity="0.79"/>
<stop offset="1" stop-color="#130937" stop-opacity="0.94"/>
</linearGradient>
</defs>
</svg>
